<svg width="51" height="75" viewBox="0 0 51 75" fill="none" xmlns="http://www.w3.org/2000/svg">
<rect width="51" height="75" rx="25.5" fill="#F58634"/>
<path d="M16.7124 23.9961C16.6278 24.0807 15.8242 24.9267 15.9511 26.0687C16.078 27.0839 16.8816 27.8876 17.9814 28.1414C19.1235 31.0178 21.8307 33.0481 24.8762 33.2596C28.2602 33.4711 31.5172 31.3985 32.8285 28.1414C34.0552 28.0145 34.9435 27.0839 34.9858 26.0264C35.0281 25.2228 34.5205 24.4191 33.7591 23.9961C33.4207 19.4277 29.5714 15.9169 25.0877 16.0015C20.7309 16.0861 17.0508 19.5546 16.7124 23.9961Z" stroke="white" stroke-miterlimit="10"/>
<path d="M25.0876 16.002C24.0302 16.4249 23.3111 17.3555 23.2688 18.4553C23.2265 19.8512 24.3263 20.6972 24.4531 20.7395C25.5106 21.2471 26.695 21.1625 27.4141 20.528C27.8794 20.105 28.0486 19.5551 28.1332 19.259C28.1755 18.4553 27.7102 17.7785 27.1603 17.6516C26.8642 17.567 26.4835 17.6516 26.1874 17.9054C26.1028 17.99 25.8067 18.2015 25.7644 18.5822C25.7221 18.9206 25.9336 19.259 26.272 19.4705" stroke="white" stroke-miterlimit="10"/>
<path d="M19.8435 31.8213C19.3782 32.4558 18.3207 33.7671 16.5018 34.6553C14.1754 35.7551 12.0604 35.459 11.299 35.3321C11.299 34.6553 11.299 33.9786 11.299 33.3018C11.299 33.1326 11.2144 32.9211 11.0875 32.8365C10.9183 32.7519 10.6645 32.7519 10.5376 32.9211C10.2415 33.5133 9.94544 34.1055 9.64934 34.7399C9.39555 33.6402 8.29577 33.0057 7.28058 33.3441C6.35 33.6402 5.7578 34.7399 6.0962 35.7128C6.1808 35.882 6.77299 37.1933 8.21117 37.5317C9.14175 37.7432 9.90314 37.4048 10.1569 37.2779C10.9183 37.8701 12.1873 38.7584 14.0062 39.3083C15.7828 39.8582 17.3478 39.9005 18.3207 39.8582C17.94 40.6196 17.4747 41.8039 17.2209 43.2844C17.0094 44.7226 17.094 45.9493 17.2209 46.7953C16.7133 47.1337 16.0365 47.472 15.2329 47.7681C14.6407 47.9796 14.0485 48.1488 13.5409 48.2334C12.4411 46.1185 10.2838 45.2725 8.80336 45.907C7.53438 46.4569 7.15368 47.9796 7.11138 48.2334C7.15368 50.856 8.50726 53.1825 10.6222 54.1553C12.145 54.8744 13.6255 54.6629 14.3023 54.536C14.4715 54.2399 14.7253 53.6478 14.7253 52.8441C14.7253 51.9558 14.4292 51.279 14.26 50.9829" stroke="white" stroke-miterlimit="10"/>
<path d="M30.6719 31.8213C31.1372 32.4558 32.1947 33.7671 34.0135 34.6553C36.34 35.7551 38.455 35.459 39.2163 35.3321C39.2163 34.6553 39.2163 33.9786 39.2163 33.3018C39.2163 33.1326 39.3009 32.9211 39.4278 32.8365C39.597 32.7519 39.8508 32.7519 39.9777 32.9211C40.2738 33.5133 40.5699 34.1055 40.866 34.7399C41.1198 33.6402 42.2196 33.0057 43.2348 33.3441C44.1654 33.6402 44.7576 34.7399 44.4192 35.7128C44.3346 35.882 43.7424 37.1933 42.3042 37.5317C41.3736 37.7432 40.6122 37.4048 40.3584 37.2779C39.597 37.8701 38.3281 38.7584 36.5092 39.3083C34.7326 39.8582 33.1675 39.9005 32.1947 39.8582C32.5753 40.6196 33.0406 41.8039 33.2944 43.2844C33.5059 44.7226 33.4213 45.9493 33.2944 46.7953C33.802 47.1337 34.4788 47.472 35.2825 47.7681C35.8747 47.9796 36.4669 48.1488 36.9745 48.2334C38.0743 46.1185 40.2315 45.2725 41.712 45.907C42.981 46.4569 43.3617 47.9796 43.404 48.2334C43.3617 50.856 42.0081 53.1825 39.8931 54.1553C38.3704 54.8744 36.8899 54.6629 36.2131 54.536C36.0439 54.2399 35.7901 53.6478 35.7901 52.8441C35.7901 51.9558 36.0862 51.279 36.2554 50.9829" stroke="white" stroke-miterlimit="10"/>
<path d="M14.6406 52.7599C17.4747 52.0831 21.197 51.5332 25.5962 51.5332C29.6569 51.5755 33.1677 52.1254 35.8749 52.7599" stroke="white" stroke-miterlimit="10"/>
<path d="M24.5801 38.4622C24.5801 38.4622 25.6376 36.7279 26.5681 38.4622" stroke="white" stroke-miterlimit="10"/>
<path d="M24.5801 40.8313C24.5801 40.8313 25.6376 39.0971 26.5681 40.8313" stroke="white" stroke-miterlimit="10"/>
<path d="M24.5801 43.1995C24.5801 43.1995 25.6376 41.4652 26.5681 43.1995" stroke="white" stroke-miterlimit="10"/>
<path d="M21.0273 34.8672C21.0273 34.8672 26.0187 36.2631 29.4026 34.8672" stroke="white" stroke-miterlimit="10"/>
<path d="M21.2578 25.79C22.0862 25.79 22.7578 25.1185 22.7578 24.29C22.7578 23.4616 22.0862 22.79 21.2578 22.79C20.4294 22.79 19.7578 23.4616 19.7578 24.29C19.7578 25.1185 20.4294 25.79 21.2578 25.79Z" fill="white"/>
<path d="M29.2578 25.79C30.0862 25.79 30.7578 25.1185 30.7578 24.29C30.7578 23.4616 30.0862 22.79 29.2578 22.79C28.4294 22.79 27.7578 23.4616 27.7578 24.29C27.7578 25.1185 28.4294 25.79 29.2578 25.79Z" fill="white"/>
<path d="M23.7578 27.79C23.9578 28.7996 24.5578 29.5715 25.3578 29.7497C26.3578 29.9872 27.4578 29.1559 27.7578 27.79C26.2588 28.7066 25.3731 28.8123 23.7578 27.79Z" stroke="white" stroke-width="0.5" stroke-miterlimit="10" stroke-linecap="round" stroke-linejoin="round"/>
</svg>
