<svg width="51" height="75" viewBox="0 0 51 75" fill="none" xmlns="http://www.w3.org/2000/svg">
<rect width="51" height="75" rx="25.5" fill="#4682B4"/>
<path d="M18.9716 23.0291C19.9531 22.451 20.9346 21.8886 21.9161 21.3105C23.3576 22.0917 25.3513 22.9822 27.851 23.5446C29.814 23.9977 31.5623 24.1227 32.9579 24.1227C33.1265 25.0913 33.602 28.3722 31.7617 31.8561C29.86 35.4806 26.7315 36.8867 25.8574 37.246C24.8759 36.7617 21.9314 35.1526 20.1064 31.5436C18.1588 27.6847 18.7569 24.0758 18.9716 23.0291Z" stroke="white" stroke-miterlimit="10" stroke-linecap="round" stroke-linejoin="round"/>
<path d="M23.3432 35.6041C23.3585 36.0259 23.3432 36.9008 22.8678 37.8382C22.5304 38.5256 22.0703 38.9787 21.7789 39.2286C20.506 39.713 19.2178 40.1973 17.945 40.6816C17.5309 40.2598 16.8561 39.4786 16.4727 38.2913C16.2427 37.6195 16.1814 37.0102 16.166 36.5571C16.166 31.7452 16.166 26.9333 16.166 22.137C16.9021 17.2783 20.8128 13.6225 25.4135 13.3413C30.4283 13.0288 35.0751 16.8096 35.9032 22.137C35.9032 27.1677 35.9032 32.1983 35.9032 37.2445C35.7805 37.7913 35.5505 38.5256 35.0904 39.3224C34.753 39.9004 34.385 40.3535 34.0782 40.6972C33.0047 40.2598 31.9159 39.8223 30.8424 39.4005C30.5203 39.2443 29.8302 38.8693 29.2781 38.0882C28.588 37.0727 28.5727 36.0259 28.588 35.6666" stroke="white" stroke-miterlimit="10" stroke-linecap="round" stroke-linejoin="round"/>
<path d="M17.9466 40.6816C17.4405 40.8691 16.735 41.1347 15.8762 41.494C14.45 42.0877 13.7446 42.3846 13.1158 42.7439C12.349 43.1969 11.0148 43.9781 10.018 45.5248C9.66523 46.0872 9.0978 47.134 8.89844 48.6494C8.89844 51.3522 8.89844 54.0706 8.89844 56.7734H36.7023C39.6621 56.3203 42.0851 54.1174 42.7906 51.1959C43.542 48.1026 42.2231 44.8061 39.524 43.072C37.6991 42.2752 35.8895 41.4784 34.0645 40.6816" stroke="white" stroke-miterlimit="10" stroke-linecap="round" stroke-linejoin="round"/>
<path d="M20.1406 39.8545L25.0481 49.2283" stroke="white" stroke-miterlimit="10" stroke-linecap="round" stroke-linejoin="round"/>
<path d="M8.89844 52.304C9.46586 51.5072 10.432 50.3511 11.9349 49.445C14.0973 48.1482 16.1523 48.1014 18.2226 48.0389C19.7409 47.992 22.0106 48.1014 24.679 48.9138C25.0777 49.2731 25.8445 49.9918 26.8107 50.8979C28.9577 52.882 29.2491 53.1789 29.9238 53.4757C31.3654 54.1006 32.7303 53.9131 33.6811 53.7882C34.9846 53.6007 36.3955 53.4132 37.4384 52.2259C38.4505 51.0697 38.5272 49.6637 38.5579 49.2575C38.6652 46.7109 36.7789 45.0549 36.5182 44.8205C36.0275 44.4612 35.0767 43.8675 33.7578 43.7582C31.0433 43.5238 29.203 45.5392 28.9577 45.8204C28.697 45.7267 27.7308 45.4298 26.9947 45.9454C26.3506 46.3985 26.2279 47.2109 26.0745 48.1326C25.9519 48.9294 25.9979 49.6012 26.0439 50.0386" stroke="white" stroke-miterlimit="10" stroke-linecap="round" stroke-linejoin="round"/>
<path d="M26.9648 50.9133C28.4984 50.9133 30.8295 50.6633 32.9918 49.3822C33.9733 48.8041 34.4641 48.273 34.7248 47.9761C35.7983 46.695 36.059 45.2577 36.1357 44.5234" stroke="white" stroke-miterlimit="10" stroke-linecap="round" stroke-linejoin="round"/>
<path d="M13.3906 56.7741C13.3906 56.3836 13.4366 55.8055 13.6973 55.165C14.2188 53.8682 15.2616 53.2121 15.737 52.9309C17.4086 51.931 19.0342 52.1653 21.8407 52.2903C23.3742 52.3528 25.5673 52.3841 28.2664 52.2435" stroke="white" stroke-miterlimit="10" stroke-linecap="round" stroke-linejoin="round"/>
<path d="M23.1914 52.3535V56.7748" stroke="white" stroke-miterlimit="10" stroke-linecap="round" stroke-linejoin="round"/>
<path d="M23.8984 30.7607C23.9751 31.9012 24.8799 32.7917 25.9688 32.8386C27.1036 32.8855 28.1158 31.9637 28.1925 30.7607" stroke="white" stroke-miterlimit="10" stroke-linecap="round" stroke-linejoin="round"/>
<path d="M22.4236 27.1209C22.8302 27.1209 23.1597 26.7852 23.1597 26.371C23.1597 25.9568 22.8302 25.6211 22.4236 25.6211C22.0171 25.6211 21.6875 25.9568 21.6875 26.371C21.6875 26.7852 22.0171 27.1209 22.4236 27.1209Z" fill="white"/>
<path d="M29.5408 27.1209C29.9474 27.1209 30.2769 26.7852 30.2769 26.371C30.2769 25.9568 29.9474 25.6211 29.5408 25.6211C29.1343 25.6211 28.8047 25.9568 28.8047 26.371C28.8047 26.7852 29.1343 27.1209 29.5408 27.1209Z" fill="white"/>
</svg>
