<svg width="224" height="118" viewBox="0 0 224 118" fill="none" xmlns="http://www.w3.org/2000/svg">
<path d="M112.032 46.029C110.765 46.7799 110.389 48.1409 109.826 49.3141C106.494 56.1191 105.509 63.3465 105.649 70.8554C105.696 73.5774 105.649 73.5774 102.974 73.6243C100.205 73.6713 97.4835 73.7182 94.7146 73.859C93.4474 73.9059 92.8843 73.4366 92.9312 72.1695C92.9781 70.9024 92.7435 69.5883 92.8373 68.3212C93.2597 60.6714 90.3031 53.8664 87.2525 47.1084C83.4042 38.7077 79.1335 30.5418 75.1444 22.235C73.8772 19.6069 73.0794 16.7441 72 13.8344C73.1263 13.9282 73.2671 14.726 73.5957 15.2892C76.6931 20.0292 80.2598 24.3 84.8591 27.7259C90.8662 32.2313 97.3896 33.5453 104.617 30.9641C111.093 28.6645 116.819 25.0508 121.888 20.4047C124.328 18.152 126.628 15.7585 128.88 13.3181C130.007 12.3326 131.133 11.3001 132.306 10.2676C132.588 10.5023 132.165 10.8308 131.978 11.1124C127.332 19.0437 122.592 26.9281 118.039 34.9533C116.444 37.7691 114.426 40.4442 113.393 43.5886C113.44 44.668 113.722 45.9351 112.032 46.029Z" fill="#FF9004"/>
<path d="M112.031 46.0289C112.501 45.2311 112.923 44.3864 113.392 43.5885C114.659 45.0434 115.926 46.4982 117.194 47.9531C122.403 53.7725 129.771 52.787 134.37 50.1119C138.594 47.6715 141.645 44.1048 144.695 40.3972C146.901 37.7222 148.872 34.9063 150.796 32.0435C151.125 31.5742 151.312 31.011 151.923 30.7295C152.204 31.5742 151.641 32.1374 151.359 32.7006C147.182 40.9135 142.302 48.704 137.749 56.6823C134.652 62.0793 131.93 67.5233 131.977 73.9528C131.977 74.8445 131.508 75.0322 130.757 74.9853C128.645 74.8445 126.533 74.6568 124.421 74.5629C123.248 74.516 123.154 73.7182 123.013 72.9204C122.215 69.072 121.23 65.2706 119.916 61.5631C117.991 56.0722 115.645 50.722 112.031 46.0289Z" fill="#FF224C"/>
<path d="M126.676 48.5632C122.78 48.6101 119.542 45.1842 119.495 41.0073C119.448 36.7366 122.686 33.1699 126.629 33.1699C130.524 33.1699 133.715 36.6428 133.762 40.8196C133.715 44.9965 130.571 48.5163 126.676 48.5632Z" fill="#FF224C"/>
<path d="M108.841 13.8813C108.888 16.2278 108.654 18.3866 107.809 20.4047C106.448 23.7837 103.35 25.4732 99.7367 24.8631C98.5166 24.6285 97.9064 24.1591 97.9533 22.7982C98.0472 20.9678 98.0941 19.1845 97.5309 17.4011C96.4985 14.069 94.2459 12.2387 90.773 11.9571C88.6611 11.7694 88.4733 11.5347 88.8957 9.46977C89.1303 8.39036 89.4588 7.31095 89.8812 6.27847C91.1953 3.08717 93.2602 0.552899 96.9208 0.0835894C100.816 -0.43265 103.726 1.49152 105.979 4.4951C108.09 7.26402 108.982 10.5023 108.841 13.8813Z" fill="#FF9004"/>
<path d="M86.641 22.1415C86.5003 21.2968 86.2656 20.4051 86.2656 19.5603C86.2656 17.5892 87.1104 16.0405 88.9876 15.1957C90.8179 14.3979 92.5543 14.6326 94.1031 15.8997C96.2619 17.5892 96.7781 21.5314 95.1825 23.7372C94.1031 25.239 91.0995 25.5675 89.0345 24.3942C88.049 23.831 87.3919 22.9393 86.641 22.1415Z" fill="#FF9004"/>
<path d="M66.2078 79.421L66.0978 80.312H63.9968V87H62.9518V80.312H60.7958V79.421H66.2078ZM68.9348 81.071C69.7488 81.071 70.3795 81.3423 70.8268 81.885C71.2815 82.4277 71.5089 83.1647 71.5089 84.096C71.5089 84.6973 71.4061 85.229 71.2008 85.691C70.9955 86.1457 70.6985 86.5013 70.3098 86.758C69.9211 87.0073 69.4591 87.132 68.9238 87.132C68.1098 87.132 67.4755 86.8607 67.0208 86.318C66.5661 85.7753 66.3388 85.0383 66.3388 84.107C66.3388 83.5057 66.4415 82.9777 66.6468 82.523C66.8521 82.061 67.1492 81.7053 67.5378 81.456C67.9265 81.1993 68.3921 81.071 68.9348 81.071ZM68.9348 81.885C67.9301 81.885 67.4278 82.6257 67.4278 84.107C67.4278 85.581 67.9265 86.318 68.9238 86.318C69.9211 86.318 70.4198 85.5773 70.4198 84.096C70.4198 82.622 69.9248 81.885 68.9348 81.885ZM79.8026 81.203L78.4826 87H77.1076L76.0956 82.116L75.0506 87H73.7086L72.3556 81.203H73.3676L74.4126 86.296L75.5566 81.203H76.6896L77.7786 86.296L78.8346 81.203H79.8026ZM84.8415 85.647C84.8415 85.8817 84.8818 86.0577 84.9625 86.175C85.0433 86.285 85.1642 86.3693 85.3255 86.428L85.0945 87.132C84.7938 87.0953 84.5518 87.011 84.3685 86.879C84.1852 86.747 84.0495 86.5417 83.9615 86.263C83.5728 86.8423 82.9972 87.132 82.2345 87.132C81.6625 87.132 81.2115 86.9707 80.8815 86.648C80.5515 86.3253 80.3865 85.9037 80.3865 85.383C80.3865 84.767 80.6065 84.294 81.0465 83.964C81.4939 83.634 82.1245 83.469 82.9385 83.469H83.8295V83.04C83.8295 82.6293 83.7305 82.336 83.5325 82.16C83.3345 81.984 83.0302 81.896 82.6195 81.896C82.1942 81.896 81.6735 81.9987 81.0575 82.204L80.8046 81.467C81.5232 81.203 82.1906 81.071 82.8065 81.071C83.4885 81.071 83.9982 81.2397 84.3355 81.577C84.6729 81.907 84.8415 82.38 84.8415 82.996V85.647ZM82.4655 86.373C83.0448 86.373 83.4995 86.0723 83.8295 85.471V84.14H83.0705C81.9998 84.14 81.4645 84.536 81.4645 85.328C81.4645 85.6727 81.5488 85.933 81.7175 86.109C81.8862 86.285 82.1355 86.373 82.4655 86.373ZM89.4389 81.071C89.6442 81.071 89.8349 81.093 90.0109 81.137L89.8239 82.127C89.6479 82.083 89.4792 82.061 89.3179 82.061C88.9586 82.061 88.6689 82.193 88.4489 82.457C88.2289 82.721 88.0566 83.1317 87.9319 83.689V87H86.9199V81.203H87.7889L87.8879 82.38C88.0419 81.9473 88.2509 81.621 88.5149 81.401C88.7789 81.181 89.087 81.071 89.4389 81.071ZM95.3181 78.871V87H94.4271L94.3281 86.197C94.1375 86.4903 93.8991 86.7213 93.6131 86.89C93.3271 87.0513 93.0081 87.132 92.6561 87.132C91.9667 87.132 91.4277 86.8607 91.0391 86.318C90.6577 85.7753 90.4671 85.0457 90.4671 84.129C90.4671 83.535 90.5587 83.007 90.7421 82.545C90.9254 82.083 91.1894 81.7237 91.5341 81.467C91.8787 81.203 92.2822 81.071 92.7441 81.071C93.3382 81.071 93.8587 81.3093 94.3061 81.786V78.75L95.3181 78.871ZM92.8761 86.329C93.1841 86.329 93.4481 86.2593 93.6681 86.12C93.8881 85.9733 94.1007 85.757 94.3061 85.471V82.633C94.1154 82.3837 93.9101 82.1967 93.6901 82.072C93.4774 81.94 93.2355 81.874 92.9641 81.874C92.5167 81.874 92.1684 82.061 91.9191 82.435C91.6771 82.809 91.5561 83.3663 91.5561 84.107C91.5561 84.855 91.6697 85.4123 91.8971 85.779C92.1245 86.1457 92.4507 86.329 92.8761 86.329ZM98.9773 81.071C99.3734 81.071 99.7289 81.126 100.044 81.236C100.36 81.346 100.66 81.511 100.946 81.731L100.517 82.369C100.253 82.2003 99.9999 82.0757 99.7583 81.995C99.5236 81.9143 99.2743 81.874 99.0103 81.874C98.6803 81.874 98.4199 81.9437 98.2293 82.083C98.0387 82.215 97.9433 82.3983 97.9433 82.633C97.9433 82.8677 98.0313 83.051 98.2073 83.183C98.3906 83.315 98.7169 83.4433 99.1863 83.568C99.8316 83.7293 100.312 83.9493 100.627 84.228C100.95 84.5067 101.111 84.888 101.111 85.372C101.111 85.944 100.888 86.3803 100.44 86.681C99.9999 86.9817 99.4613 87.132 98.8233 87.132C97.9434 87.132 97.2136 86.879 96.6343 86.373L97.1733 85.757C97.6646 86.131 98.2073 86.318 98.8013 86.318C99.1826 86.318 99.4833 86.241 99.7033 86.087C99.9306 85.9257 100.044 85.7093 100.044 85.438C100.044 85.24 100.004 85.0823 99.9233 84.965C99.8426 84.8403 99.7033 84.734 99.5053 84.646C99.3074 84.5507 99.0176 84.4517 98.6363 84.349C98.0203 84.1877 97.573 83.9713 97.2943 83.7C97.0229 83.4287 96.8873 83.084 96.8873 82.666C96.8873 82.3653 96.9753 82.094 97.1513 81.852C97.3346 81.6027 97.5839 81.412 97.8993 81.28C98.2219 81.1407 98.5813 81.071 98.9773 81.071ZM109.355 85.647C109.355 85.8817 109.396 86.0577 109.476 86.175C109.557 86.285 109.678 86.3693 109.839 86.428L109.608 87.132C109.308 87.0953 109.066 87.011 108.882 86.879C108.699 86.747 108.563 86.5417 108.475 86.263C108.087 86.8423 107.511 87.132 106.748 87.132C106.176 87.132 105.725 86.9707 105.395 86.648C105.065 86.3253 104.9 85.9037 104.9 85.383C104.9 84.767 105.12 84.294 105.56 83.964C106.008 83.634 106.638 83.469 107.452 83.469H108.343V83.04C108.343 82.6293 108.244 82.336 108.046 82.16C107.848 81.984 107.544 81.896 107.133 81.896C106.708 81.896 106.187 81.9987 105.571 82.204L105.318 81.467C106.037 81.203 106.704 81.071 107.32 81.071C108.002 81.071 108.512 81.2397 108.849 81.577C109.187 81.907 109.355 82.38 109.355 82.996V85.647ZM106.979 86.373C107.559 86.373 108.013 86.0723 108.343 85.471V84.14H107.584C106.514 84.14 105.978 84.536 105.978 85.328C105.978 85.6727 106.063 85.933 106.231 86.109C106.4 86.285 106.649 86.373 106.979 86.373ZM117.073 81.071C117.601 81.071 118.011 81.2287 118.305 81.544C118.605 81.8593 118.756 82.292 118.756 82.842V87H117.744V82.985C117.744 82.5743 117.667 82.2847 117.513 82.116C117.359 81.9473 117.131 81.863 116.831 81.863C116.523 81.863 116.251 81.951 116.017 82.127C115.782 82.303 115.562 82.556 115.357 82.886V87H114.345V81.203H115.214L115.302 82.061C115.507 81.753 115.76 81.511 116.061 81.335C116.369 81.159 116.706 81.071 117.073 81.071ZM125.168 83.931C125.168 84.0997 125.161 84.272 125.146 84.448H121.45C121.494 85.086 121.655 85.5553 121.934 85.856C122.213 86.1567 122.572 86.307 123.012 86.307C123.291 86.307 123.547 86.2667 123.782 86.186C124.017 86.1053 124.262 85.977 124.519 85.801L124.959 86.406C124.343 86.89 123.668 87.132 122.935 87.132C122.128 87.132 121.498 86.868 121.043 86.34C120.596 85.812 120.372 85.086 120.372 84.162C120.372 83.5607 120.467 83.029 120.658 82.567C120.856 82.0977 121.135 81.731 121.494 81.467C121.861 81.203 122.29 81.071 122.781 81.071C123.551 81.071 124.141 81.324 124.552 81.83C124.963 82.336 125.168 83.0363 125.168 83.931ZM124.167 83.634C124.167 83.062 124.053 82.6257 123.826 82.325C123.599 82.0243 123.258 81.874 122.803 81.874C121.974 81.874 121.523 82.4827 121.45 83.7H124.167V83.634ZM133.406 81.203L132.086 87H130.711L129.699 82.116L128.654 87H127.312L125.959 81.203H126.971L128.016 86.296L129.16 81.203H130.293L131.382 86.296L132.438 81.203H133.406ZM142.068 78.871V87H141.177L141.078 86.197C140.887 86.4903 140.649 86.7213 140.363 86.89C140.077 87.0513 139.758 87.132 139.406 87.132C138.717 87.132 138.178 86.8607 137.789 86.318C137.408 85.7753 137.217 85.0457 137.217 84.129C137.217 83.535 137.309 83.007 137.492 82.545C137.675 82.083 137.939 81.7237 138.284 81.467C138.629 81.203 139.032 81.071 139.494 81.071C140.088 81.071 140.609 81.3093 141.056 81.786V78.75L142.068 78.871ZM139.626 86.329C139.934 86.329 140.198 86.2593 140.418 86.12C140.638 85.9733 140.851 85.757 141.056 85.471V82.633C140.865 82.3837 140.66 82.1967 140.44 82.072C140.227 81.94 139.985 81.874 139.714 81.874C139.267 81.874 138.918 82.061 138.669 82.435C138.427 82.809 138.306 83.3663 138.306 84.107C138.306 84.855 138.42 85.4123 138.647 85.779C138.874 86.1457 139.201 86.329 139.626 86.329ZM148.059 85.647C148.059 85.8817 148.1 86.0577 148.18 86.175C148.261 86.285 148.382 86.3693 148.543 86.428L148.312 87.132C148.012 87.0953 147.77 87.011 147.586 86.879C147.403 86.747 147.267 86.5417 147.179 86.263C146.791 86.8423 146.215 87.132 145.452 87.132C144.88 87.132 144.429 86.9707 144.099 86.648C143.769 86.3253 143.604 85.9037 143.604 85.383C143.604 84.767 143.824 84.294 144.264 83.964C144.712 83.634 145.342 83.469 146.156 83.469H147.047V83.04C147.047 82.6293 146.948 82.336 146.75 82.16C146.552 81.984 146.248 81.896 145.837 81.896C145.412 81.896 144.891 81.9987 144.275 82.204L144.022 81.467C144.741 81.203 145.408 81.071 146.024 81.071C146.706 81.071 147.216 81.2397 147.553 81.577C147.891 81.907 148.059 82.38 148.059 82.996V85.647ZM145.683 86.373C146.263 86.373 146.717 86.0723 147.047 85.471V84.14H146.288C145.218 84.14 144.682 84.536 144.682 85.328C144.682 85.6727 144.767 85.933 144.935 86.109C145.104 86.285 145.353 86.373 145.683 86.373ZM156.706 81.203L155.386 87H154.011L152.999 82.116L151.954 87H150.612L149.259 81.203H150.271L151.316 86.296L152.46 81.203H153.593L154.682 86.296L155.738 81.203H156.706ZM160.697 81.071C161.225 81.071 161.635 81.2287 161.929 81.544C162.229 81.8593 162.38 82.292 162.38 82.842V87H161.368V82.985C161.368 82.5743 161.291 82.2847 161.137 82.116C160.983 81.9473 160.755 81.863 160.455 81.863C160.147 81.863 159.875 81.951 159.641 82.127C159.406 82.303 159.186 82.556 158.981 82.886V87H157.969V81.203H158.838L158.926 82.061C159.131 81.753 159.384 81.511 159.685 81.335C159.993 81.159 160.33 81.071 160.697 81.071ZM14.2283 100H12.6443L12.4793 96.909C12.428 95.985 12.4023 95.2003 12.4023 94.555C12.4023 94.2103 12.406 93.961 12.4133 93.807L11.1263 99.186H9.59738L8.22238 93.796C8.25172 94.2433 8.26638 94.7457 8.26638 95.303C8.26638 95.897 8.25172 96.4433 8.22238 96.942L8.05738 100H6.48438L7.07838 92.388H9.13538L10.3893 97.635L11.5663 92.388H13.6453L14.2283 100ZM17.0023 94.17V100H15.4403V94.17H17.0023ZM16.2103 91.167C16.489 91.167 16.7163 91.255 16.8923 91.431C17.0756 91.5997 17.1673 91.816 17.1673 92.08C17.1673 92.344 17.0756 92.564 16.8923 92.74C16.7163 92.9087 16.489 92.993 16.2103 92.993C15.9316 92.993 15.7043 92.9087 15.5283 92.74C15.3523 92.564 15.2643 92.344 15.2643 92.08C15.2643 91.816 15.3523 91.5997 15.5283 91.431C15.7043 91.255 15.9316 91.167 16.2103 91.167ZM21.8008 93.994C22.3141 93.994 22.7138 94.1517 22.9998 94.467C23.2858 94.775 23.4288 95.204 23.4288 95.754V100H21.8668V96.018C21.8668 95.7027 21.8118 95.4827 21.7018 95.358C21.5991 95.226 21.4415 95.16 21.2288 95.16C21.0088 95.16 20.8071 95.2297 20.6238 95.369C20.4478 95.501 20.2755 95.7027 20.1068 95.974V100H18.5448V94.17H19.8978L20.0188 94.907C20.2608 94.6063 20.5248 94.379 20.8108 94.225C21.1041 94.071 21.4341 93.994 21.8008 93.994ZM26.4769 94.17V100H24.9149V94.17H26.4769ZM25.6849 91.167C25.9636 91.167 26.1909 91.255 26.3669 91.431C26.5503 91.5997 26.6419 91.816 26.6419 92.08C26.6419 92.344 26.5503 92.564 26.3669 92.74C26.1909 92.9087 25.9636 92.993 25.6849 92.993C25.4063 92.993 25.1789 92.9087 25.0029 92.74C24.8269 92.564 24.7389 92.344 24.7389 92.08C24.7389 91.816 24.8269 91.5997 25.0029 91.431C25.1789 91.255 25.4063 91.167 25.6849 91.167ZM29.9554 93.994C30.7767 93.994 31.4807 94.2287 32.0674 94.698L31.4734 95.589C30.9821 95.281 30.4981 95.127 30.0214 95.127C29.7647 95.127 29.5667 95.1747 29.4274 95.27C29.2881 95.3653 29.2184 95.4937 29.2184 95.655C29.2184 95.7723 29.2477 95.8713 29.3064 95.952C29.3724 96.0327 29.4897 96.1097 29.6584 96.183C29.8344 96.2563 30.0947 96.3443 30.4394 96.447C31.0554 96.6157 31.5137 96.843 31.8144 97.129C32.1151 97.4077 32.2654 97.7927 32.2654 98.284C32.2654 98.6727 32.1517 99.01 31.9244 99.296C31.7044 99.582 31.4037 99.802 31.0224 99.956C30.6411 100.103 30.2157 100.176 29.7464 100.176C29.2551 100.176 28.8077 100.103 28.4044 99.956C28.0011 99.802 27.6564 99.593 27.3704 99.329L28.1404 98.471C28.6317 98.8523 29.1524 99.043 29.7024 99.043C29.9957 99.043 30.2267 98.988 30.3954 98.878C30.5714 98.7607 30.6594 98.603 30.6594 98.405C30.6594 98.251 30.6264 98.13 30.5604 98.042C30.4944 97.954 30.3734 97.8733 30.1974 97.8C30.0214 97.7193 29.7464 97.6277 29.3724 97.525C28.7857 97.3637 28.3494 97.1363 28.0634 96.843C27.7847 96.5423 27.6454 96.172 27.6454 95.732C27.6454 95.402 27.7407 95.105 27.9314 94.841C28.1221 94.577 28.3897 94.3717 28.7344 94.225C29.0864 94.071 29.4934 93.994 29.9554 93.994ZM36.7701 99.725C36.5574 99.8717 36.3154 99.9817 36.0441 100.055C35.7801 100.136 35.5161 100.176 35.2521 100.176C34.6508 100.169 34.1961 99.9963 33.8881 99.659C33.5801 99.3217 33.4261 98.8267 33.4261 98.174V95.27H32.5571V94.17H33.4261V92.894L34.9881 92.707V94.17H36.3301L36.1761 95.27H34.9881V98.141C34.9881 98.4197 35.0358 98.6213 35.1311 98.746C35.2264 98.8707 35.3731 98.933 35.5711 98.933C35.7691 98.933 35.9891 98.867 36.2311 98.735L36.7701 99.725ZM40.4758 94.005C40.6518 94.005 40.8461 94.0343 41.0588 94.093L40.7948 95.6C40.5895 95.5487 40.4171 95.523 40.2778 95.523C39.9331 95.523 39.6655 95.644 39.4748 95.886C39.2841 96.128 39.1338 96.4947 39.0238 96.986V100H37.4618V94.17H38.8148L38.9578 95.303C39.0971 94.8923 39.2988 94.5733 39.5628 94.346C39.8341 94.1187 40.1385 94.005 40.4758 94.005ZM44.8369 100.011C44.6022 100.752 44.2319 101.324 43.7259 101.727C43.2272 102.13 42.549 102.361 41.6909 102.42L41.5259 101.298C42.0832 101.225 42.4902 101.093 42.7469 100.902C43.0109 100.711 43.2272 100.411 43.3959 100H42.8569L41.0419 94.17H42.7029L43.8689 98.988L45.1009 94.17H46.7179L44.8369 100.011ZM52.6013 93.994C53.474 93.994 54.156 94.269 54.6473 94.819C55.1387 95.3617 55.3843 96.117 55.3843 97.085C55.3843 97.701 55.2707 98.2437 55.0433 98.713C54.8233 99.175 54.5007 99.5343 54.0753 99.791C53.6573 100.048 53.1623 100.176 52.5903 100.176C51.7177 100.176 51.032 99.9047 50.5333 99.362C50.042 98.812 49.7963 98.053 49.7963 97.085C49.7963 96.469 49.9063 95.93 50.1263 95.468C50.3537 94.9987 50.6763 94.6357 51.0943 94.379C51.5197 94.1223 52.022 93.994 52.6013 93.994ZM52.6013 95.16C52.2053 95.16 51.9083 95.3177 51.7103 95.633C51.5197 95.941 51.4243 96.425 51.4243 97.085C51.4243 97.745 51.5197 98.2327 51.7103 98.548C51.9083 98.856 52.2017 99.01 52.5903 99.01C52.979 99.01 53.2687 98.856 53.4593 98.548C53.6573 98.2327 53.7563 97.745 53.7563 97.085C53.7563 96.425 53.661 95.941 53.4703 95.633C53.2797 95.3177 52.99 95.16 52.6013 95.16ZM59.0691 92.839C58.8051 92.839 58.6145 92.9013 58.4971 93.026C58.3871 93.1507 58.3321 93.3523 58.3321 93.631V94.17H59.7181L59.5421 95.27H58.3321V100H56.7701V95.27H55.8461V94.17H56.7701V93.587C56.7701 93.0223 56.9535 92.564 57.3201 92.212C57.6941 91.8527 58.2221 91.673 58.9041 91.673C59.4468 91.673 59.9601 91.7903 60.4441 92.025L60.0151 93.059C59.6998 92.9123 59.3845 92.839 59.0691 92.839ZM70.4072 94.17L69.1641 100H67.2611L66.4251 95.567L65.5891 100H63.7081L62.4321 94.17H64.0051L64.7201 98.845L65.6881 94.17H67.2501L68.1191 98.845L68.9111 94.17H70.4072ZM73.7205 93.994C74.5931 93.994 75.2751 94.269 75.7665 94.819C76.2579 95.3617 76.5035 96.117 76.5035 97.085C76.5035 97.701 76.3898 98.2437 76.1625 98.713C75.9425 99.175 75.6199 99.5343 75.1945 99.791C74.7766 100.048 74.2815 100.176 73.7095 100.176C72.8368 100.176 72.1512 99.9047 71.6525 99.362C71.1611 98.812 70.9156 98.053 70.9156 97.085C70.9156 96.469 71.0255 95.93 71.2455 95.468C71.4728 94.9987 71.7955 94.6357 72.2135 94.379C72.6388 94.1223 73.1411 93.994 73.7205 93.994ZM73.7205 95.16C73.3245 95.16 73.0275 95.3177 72.8295 95.633C72.6388 95.941 72.5435 96.425 72.5435 97.085C72.5435 97.745 72.6388 98.2327 72.8295 98.548C73.0275 98.856 73.3208 99.01 73.7095 99.01C74.0982 99.01 74.3878 98.856 74.5785 98.548C74.7765 98.2327 74.8755 97.745 74.8755 97.085C74.8755 96.425 74.7801 95.941 74.5895 95.633C74.3988 95.3177 74.1091 95.16 73.7205 95.16ZM83.9943 93.994C84.4563 93.994 84.8266 94.1517 85.1053 94.467C85.3913 94.7823 85.5343 95.2113 85.5343 95.754V100H83.9723V96.018C83.9723 95.446 83.7816 95.16 83.4003 95.16C83.195 95.16 83.0153 95.226 82.8613 95.358C82.7073 95.49 82.5496 95.6953 82.3883 95.974V100H80.8263V96.018C80.8263 95.446 80.6357 95.16 80.2543 95.16C80.049 95.16 79.8693 95.2297 79.7153 95.369C79.5613 95.501 79.4073 95.7027 79.2533 95.974V100H77.6913V94.17H79.0443L79.1653 94.896C79.3853 94.6027 79.631 94.379 79.9023 94.225C80.181 94.071 80.5 93.994 80.8593 93.994C81.1893 93.994 81.4753 94.0783 81.7173 94.247C81.9593 94.4083 82.1353 94.6393 82.2453 94.94C82.4873 94.6247 82.7476 94.39 83.0263 94.236C83.3123 94.0747 83.635 93.994 83.9943 93.994ZM91.9436 96.953C91.9436 97.0263 91.9325 97.228 91.9105 97.558H88.2695C88.3208 98.086 88.4638 98.46 88.6985 98.68C88.9333 98.9 89.2523 99.01 89.6555 99.01C89.9048 99.01 90.1395 98.9697 90.3595 98.889C90.5795 98.8083 90.8178 98.68 91.0745 98.504L91.7235 99.384C91.0708 99.912 90.3338 100.176 89.5126 100.176C88.5958 100.176 87.8918 99.901 87.4005 99.351C86.9092 98.801 86.6635 98.0567 86.6635 97.118C86.6635 96.524 86.7663 95.9923 86.9715 95.523C87.1842 95.0463 87.4885 94.6723 87.8845 94.401C88.2878 94.1297 88.7645 93.994 89.3145 93.994C90.1432 93.994 90.7886 94.2543 91.2505 94.775C91.7125 95.2957 91.9436 96.0217 91.9436 96.953ZM90.3925 96.513C90.3925 95.545 90.0443 95.061 89.3475 95.061C89.0248 95.061 88.7718 95.182 88.5885 95.424C88.4125 95.6587 88.3062 96.0437 88.2695 96.579H90.3925V96.513ZM96.3301 93.994C96.8434 93.994 97.2431 94.1517 97.5291 94.467C97.8151 94.775 97.9581 95.204 97.9581 95.754V100H96.3961V96.018C96.3961 95.7027 96.3411 95.4827 96.2311 95.358C96.1284 95.226 95.9708 95.16 95.7581 95.16C95.5381 95.16 95.3364 95.2297 95.1531 95.369C94.9771 95.501 94.8048 95.7027 94.6361 95.974V100H93.0742V94.17H94.4271L94.5481 94.907C94.7901 94.6063 95.0541 94.379 95.3401 94.225C95.6334 94.071 95.9634 93.994 96.3301 93.994ZM106.585 98.383C106.585 98.6103 106.618 98.779 106.684 98.889C106.75 98.9917 106.86 99.0687 107.014 99.12L106.684 100.154C106.339 100.125 106.057 100.044 105.837 99.912C105.624 99.78 105.459 99.5747 105.342 99.296C104.961 99.8827 104.378 100.176 103.593 100.176C103.014 100.176 102.552 100.011 102.207 99.681C101.87 99.3437 101.701 98.9073 101.701 98.372C101.701 97.734 101.932 97.2463 102.394 96.909C102.856 96.5717 103.52 96.403 104.385 96.403H105.056V96.117C105.056 95.7577 104.975 95.5083 104.814 95.369C104.653 95.2297 104.385 95.16 104.011 95.16C103.6 95.16 103.087 95.2627 102.471 95.468L102.119 94.423C102.845 94.137 103.564 93.994 104.275 93.994C105.067 93.994 105.65 94.1663 106.024 94.511C106.398 94.8483 106.585 95.3543 106.585 96.029V98.383ZM104.022 99.054C104.462 99.054 104.807 98.8377 105.056 98.405V97.294H104.539C103.696 97.294 103.274 97.6093 103.274 98.24C103.274 98.4967 103.336 98.6983 103.461 98.845C103.593 98.9843 103.78 99.054 104.022 99.054ZM111.401 93.994C111.915 93.994 112.314 94.1517 112.6 94.467C112.886 94.775 113.029 95.204 113.029 95.754V100H111.467V96.018C111.467 95.7027 111.412 95.4827 111.302 95.358C111.2 95.226 111.042 95.16 110.829 95.16C110.609 95.16 110.408 95.2297 110.224 95.369C110.048 95.501 109.876 95.7027 109.707 95.974V100H108.145V94.17H109.498L109.619 94.907C109.861 94.6063 110.125 94.379 110.411 94.225C110.705 94.071 111.035 93.994 111.401 93.994ZM119.565 91.849V100H118.19L118.102 99.285C117.691 99.879 117.134 100.176 116.43 100.176C115.711 100.176 115.161 99.901 114.78 99.351C114.406 98.7937 114.219 98.0383 114.219 97.085C114.219 96.4837 114.314 95.952 114.505 95.49C114.703 95.0207 114.981 94.654 115.341 94.39C115.7 94.126 116.114 93.994 116.584 93.994C117.126 93.994 117.599 94.1883 118.003 94.577V91.673L119.565 91.849ZM116.892 99.01C117.119 99.01 117.321 98.955 117.497 98.845C117.673 98.7277 117.841 98.548 118.003 98.306V95.699C117.849 95.5157 117.691 95.38 117.53 95.292C117.376 95.1967 117.196 95.149 116.991 95.149C116.631 95.149 116.349 95.3067 116.144 95.622C115.946 95.9373 115.847 96.425 115.847 97.085C115.847 97.7817 115.935 98.2767 116.111 98.57C116.294 98.8633 116.554 99.01 116.892 99.01ZM126.822 92.212C127.299 92.212 127.713 92.2817 128.065 92.421C128.417 92.553 128.762 92.7583 129.099 93.037L128.296 93.972C127.856 93.6127 127.394 93.433 126.91 93.433C126.367 93.433 125.935 93.6567 125.612 94.104C125.297 94.544 125.139 95.237 125.139 96.183C125.139 97.107 125.297 97.7927 125.612 98.24C125.935 98.68 126.371 98.9 126.921 98.9C127.207 98.9 127.467 98.8487 127.702 98.746C127.937 98.636 128.182 98.482 128.439 98.284L129.187 99.219C128.916 99.4977 128.578 99.7287 128.175 99.912C127.779 100.088 127.339 100.176 126.855 100.176C126.173 100.176 125.575 100.022 125.062 99.714C124.549 99.406 124.149 98.955 123.863 98.361C123.577 97.7597 123.434 97.0337 123.434 96.183C123.434 95.3543 123.581 94.643 123.874 94.049C124.167 93.4477 124.571 92.993 125.084 92.685C125.597 92.3697 126.177 92.212 126.822 92.212ZM133.219 93.994C133.725 93.994 134.121 94.1517 134.407 94.467C134.7 94.775 134.847 95.204 134.847 95.754V100H133.285V96.018C133.285 95.7027 133.23 95.4827 133.12 95.358C133.01 95.226 132.852 95.16 132.647 95.16C132.236 95.16 131.862 95.4277 131.525 95.963V100H129.963V91.849L131.525 91.684V94.83C131.76 94.5513 132.013 94.3423 132.284 94.203C132.563 94.0637 132.874 93.994 133.219 93.994ZM137.895 94.17V100H136.333V94.17H137.895ZM137.103 91.167C137.382 91.167 137.609 91.255 137.785 91.431C137.968 91.5997 138.06 91.816 138.06 92.08C138.06 92.344 137.968 92.564 137.785 92.74C137.609 92.9087 137.382 92.993 137.103 92.993C136.824 92.993 136.597 92.9087 136.421 92.74C136.245 92.564 136.157 92.344 136.157 92.08C136.157 91.816 136.245 91.5997 136.421 91.431C136.597 91.255 136.824 91.167 137.103 91.167ZM140.889 100.176C140.413 100.176 140.042 100.04 139.778 99.769C139.514 99.4903 139.382 99.098 139.382 98.592V91.849L140.944 91.673V98.548C140.944 98.8047 141.051 98.933 141.263 98.933C141.381 98.933 141.483 98.911 141.571 98.867L141.89 99.978C141.59 100.11 141.256 100.176 140.889 100.176ZM147.688 91.849V100H146.313L146.225 99.285C145.814 99.879 145.257 100.176 144.553 100.176C143.834 100.176 143.284 99.901 142.903 99.351C142.529 98.7937 142.342 98.0383 142.342 97.085C142.342 96.4837 142.437 95.952 142.628 95.49C142.826 95.0207 143.104 94.654 143.464 94.39C143.823 94.126 144.237 93.994 144.707 93.994C145.249 93.994 145.722 94.1883 146.126 94.577V91.673L147.688 91.849ZM145.015 99.01C145.242 99.01 145.444 98.955 145.62 98.845C145.796 98.7277 145.964 98.548 146.126 98.306V95.699C145.972 95.5157 145.814 95.38 145.653 95.292C145.499 95.1967 145.319 95.149 145.114 95.149C144.754 95.149 144.472 95.3067 144.267 95.622C144.069 95.9373 143.97 96.425 143.97 97.085C143.97 97.7817 144.058 98.2767 144.234 98.57C144.417 98.8633 144.677 99.01 145.015 99.01ZM153.933 92.388C155.121 92.388 156.071 92.6593 156.782 93.202C157.501 93.7373 157.86 94.7237 157.86 96.161C157.86 97.569 157.508 98.5627 156.804 99.142C156.107 99.714 155.213 100 154.12 100H151.942V92.388H153.933ZM153.559 93.576V98.812H154.219C154.842 98.812 155.323 98.6213 155.66 98.24C156.005 97.8513 156.177 97.1583 156.177 96.161C156.177 95.4717 156.089 94.9363 155.913 94.555C155.744 94.1737 155.517 93.917 155.231 93.785C154.945 93.6457 154.597 93.576 154.186 93.576H153.559ZM163.991 96.953C163.991 97.0263 163.98 97.228 163.958 97.558H160.317C160.369 98.086 160.512 98.46 160.746 98.68C160.981 98.9 161.3 99.01 161.703 99.01C161.953 99.01 162.187 98.9697 162.407 98.889C162.627 98.8083 162.866 98.68 163.122 98.504L163.771 99.384C163.119 99.912 162.382 100.176 161.56 100.176C160.644 100.176 159.94 99.901 159.448 99.351C158.957 98.801 158.711 98.0567 158.711 97.118C158.711 96.524 158.814 95.9923 159.019 95.523C159.232 95.0463 159.536 94.6723 159.932 94.401C160.336 94.1297 160.812 93.994 161.362 93.994C162.191 93.994 162.836 94.2543 163.298 94.775C163.76 95.2957 163.991 96.0217 163.991 96.953ZM162.44 96.513C162.44 95.545 162.092 95.061 161.395 95.061C161.073 95.061 160.82 95.182 160.636 95.424C160.46 95.6587 160.354 96.0437 160.317 96.579H162.44V96.513ZM169.887 94.17L168.017 100H166.158L164.255 94.17H165.949L167.104 98.779L168.281 94.17H169.887ZM175.486 96.953C175.486 97.0263 175.475 97.228 175.453 97.558H171.812C171.863 98.086 172.006 98.46 172.241 98.68C172.475 98.9 172.794 99.01 173.198 99.01C173.447 99.01 173.682 98.9697 173.902 98.889C174.122 98.8083 174.36 98.68 174.617 98.504L175.266 99.384C174.613 99.912 173.876 100.176 173.055 100.176C172.138 100.176 171.434 99.901 170.943 99.351C170.451 98.801 170.206 98.0567 170.206 97.118C170.206 96.524 170.308 95.9923 170.514 95.523C170.726 95.0463 171.031 94.6723 171.427 94.401C171.83 94.1297 172.307 93.994 172.857 93.994C173.685 93.994 174.331 94.2543 174.793 94.775C175.255 95.2957 175.486 96.0217 175.486 96.953ZM173.935 96.513C173.935 95.545 173.586 95.061 172.89 95.061C172.567 95.061 172.314 95.182 172.131 95.424C171.955 95.6587 171.848 96.0437 171.812 96.579H173.935V96.513ZM178.068 100.176C177.592 100.176 177.221 100.04 176.957 99.769C176.693 99.4903 176.561 99.098 176.561 98.592V91.849L178.123 91.673V98.548C178.123 98.8047 178.23 98.933 178.442 98.933C178.56 98.933 178.662 98.911 178.75 98.867L179.069 99.978C178.769 100.11 178.435 100.176 178.068 100.176ZM182.27 93.994C183.143 93.994 183.825 94.269 184.316 94.819C184.808 95.3617 185.053 96.117 185.053 97.085C185.053 97.701 184.94 98.2437 184.712 98.713C184.492 99.175 184.17 99.5343 183.744 99.791C183.326 100.048 182.831 100.176 182.259 100.176C181.387 100.176 180.701 99.9047 180.202 99.362C179.711 98.812 179.465 98.053 179.465 97.085C179.465 96.469 179.575 95.93 179.795 95.468C180.023 94.9987 180.345 94.6357 180.763 94.379C181.189 94.1223 181.691 93.994 182.27 93.994ZM182.27 95.16C181.874 95.16 181.577 95.3177 181.379 95.633C181.189 95.941 181.093 96.425 181.093 97.085C181.093 97.745 181.189 98.2327 181.379 98.548C181.577 98.856 181.871 99.01 182.259 99.01C182.648 99.01 182.938 98.856 183.128 98.548C183.326 98.2327 183.425 97.745 183.425 97.085C183.425 96.425 183.33 95.941 183.139 95.633C182.949 95.3177 182.659 95.16 182.27 95.16ZM189.387 93.994C190.121 93.994 190.663 94.2653 191.015 94.808C191.375 95.3433 191.554 96.0987 191.554 97.074C191.554 97.668 191.463 98.1997 191.279 98.669C191.096 99.1383 190.828 99.5087 190.476 99.78C190.132 100.044 189.721 100.176 189.244 100.176C188.65 100.176 188.17 99.967 187.803 99.549V102.244L186.241 102.42V94.17H187.616L187.693 94.852C187.913 94.566 188.17 94.3533 188.463 94.214C188.764 94.0673 189.072 93.994 189.387 93.994ZM188.782 99.01C189.545 99.01 189.926 98.3683 189.926 97.085C189.926 96.381 189.842 95.8823 189.673 95.589C189.505 95.2957 189.248 95.149 188.903 95.149C188.683 95.149 188.478 95.2187 188.287 95.358C188.104 95.49 187.943 95.6697 187.803 95.897V98.438C188.053 98.8193 188.379 99.01 188.782 99.01ZM199.097 93.994C199.559 93.994 199.929 94.1517 200.208 94.467C200.494 94.7823 200.637 95.2113 200.637 95.754V100H199.075V96.018C199.075 95.446 198.884 95.16 198.503 95.16C198.298 95.16 198.118 95.226 197.964 95.358C197.81 95.49 197.652 95.6953 197.491 95.974V100H195.929V96.018C195.929 95.446 195.738 95.16 195.357 95.16C195.152 95.16 194.972 95.2297 194.818 95.369C194.664 95.501 194.51 95.7027 194.356 95.974V100H192.794V94.17H194.147L194.268 94.896C194.488 94.6027 194.734 94.379 195.005 94.225C195.284 94.071 195.603 93.994 195.962 93.994C196.292 93.994 196.578 94.0783 196.82 94.247C197.062 94.4083 197.238 94.6393 197.348 94.94C197.59 94.6247 197.85 94.39 198.129 94.236C198.415 94.0747 198.738 93.994 199.097 93.994ZM207.046 96.953C207.046 97.0263 207.035 97.228 207.013 97.558H203.372C203.423 98.086 203.566 98.46 203.801 98.68C204.036 98.9 204.355 99.01 204.758 99.01C205.007 99.01 205.242 98.9697 205.462 98.889C205.682 98.8083 205.92 98.68 206.177 98.504L206.826 99.384C206.173 99.912 205.436 100.176 204.615 100.176C203.698 100.176 202.994 99.901 202.503 99.351C202.012 98.801 201.766 98.0567 201.766 97.118C201.766 96.524 201.869 95.9923 202.074 95.523C202.287 95.0463 202.591 94.6723 202.987 94.401C203.39 94.1297 203.867 93.994 204.417 93.994C205.246 93.994 205.891 94.2543 206.353 94.775C206.815 95.2957 207.046 96.0217 207.046 96.953ZM205.495 96.513C205.495 95.545 205.147 95.061 204.45 95.061C204.127 95.061 203.874 95.182 203.691 95.424C203.515 95.6587 203.409 96.0437 203.372 96.579H205.495V96.513ZM211.433 93.994C211.946 93.994 212.346 94.1517 212.632 94.467C212.918 94.775 213.061 95.204 213.061 95.754V100H211.499V96.018C211.499 95.7027 211.444 95.4827 211.334 95.358C211.231 95.226 211.073 95.16 210.861 95.16C210.641 95.16 210.439 95.2297 210.256 95.369C210.08 95.501 209.907 95.7027 209.739 95.974V100H208.177V94.17H209.53L209.651 94.907C209.893 94.6063 210.157 94.379 210.443 94.225C210.736 94.071 211.066 93.994 211.433 93.994ZM218.034 99.725C217.821 99.8717 217.579 99.9817 217.308 100.055C217.044 100.136 216.78 100.176 216.516 100.176C215.915 100.169 215.46 99.9963 215.152 99.659C214.844 99.3217 214.69 98.8267 214.69 98.174V95.27H213.821V94.17H214.69V92.894L216.252 92.707V94.17H217.594L217.44 95.27H216.252V98.141C216.252 98.4197 216.3 98.6213 216.395 98.746C216.49 98.8707 216.637 98.933 216.835 98.933C217.033 98.933 217.253 98.867 217.495 98.735L218.034 99.725ZM64.6826 105.212C65.1959 105.212 65.6506 105.293 66.0466 105.454C66.4499 105.608 66.8239 105.832 67.1686 106.125L66.3216 107.005C66.0503 106.8 65.7936 106.649 65.5516 106.554C65.3169 106.459 65.0494 106.411 64.7486 106.411C64.1693 106.411 63.6999 106.642 63.3406 107.104C62.9886 107.559 62.8126 108.255 62.8126 109.194C62.8126 110.184 62.9483 110.895 63.2196 111.328C63.4983 111.753 63.9273 111.966 64.5066 111.966C64.9246 111.966 65.3023 111.874 65.6396 111.691V109.832H64.5726L64.4076 108.655H67.2126V112.406C66.8166 112.648 66.3876 112.839 65.9256 112.978C65.4709 113.11 65.0089 113.176 64.5396 113.176C63.4176 113.176 62.5669 112.839 61.9876 112.164C61.4083 111.489 61.1186 110.496 61.1186 109.183C61.1186 108.354 61.2763 107.639 61.5916 107.038C61.9069 106.437 62.3323 105.982 62.8676 105.674C63.4103 105.366 64.0153 105.212 64.6826 105.212ZM70.9705 106.994C71.8431 106.994 72.5251 107.269 73.0165 107.819C73.5079 108.362 73.7535 109.117 73.7535 110.085C73.7535 110.701 73.6398 111.244 73.4125 111.713C73.1925 112.175 72.8699 112.534 72.4445 112.791C72.0266 113.048 71.5315 113.176 70.9595 113.176C70.0868 113.176 69.4011 112.905 68.9025 112.362C68.4111 111.812 68.1656 111.053 68.1656 110.085C68.1656 109.469 68.2755 108.93 68.4955 108.468C68.7228 107.999 69.0455 107.636 69.4635 107.379C69.8888 107.122 70.3911 106.994 70.9705 106.994ZM70.9705 108.16C70.5745 108.16 70.2775 108.318 70.0795 108.633C69.8888 108.941 69.7935 109.425 69.7935 110.085C69.7935 110.745 69.8888 111.233 70.0795 111.548C70.2775 111.856 70.5708 112.01 70.9595 112.01C71.3482 112.01 71.6378 111.856 71.8285 111.548C72.0265 111.233 72.1255 110.745 72.1255 110.085C72.1255 109.425 72.0301 108.941 71.8395 108.633C71.6488 108.318 71.3591 108.16 70.9705 108.16ZM79.7061 107.17L77.8361 113H75.9771L74.0742 107.17H75.7682L76.9231 111.779L78.1001 107.17H79.7061ZM85.3048 109.953C85.3048 110.026 85.2938 110.228 85.2718 110.558H81.6308C81.6822 111.086 81.8252 111.46 82.0598 111.68C82.2945 111.9 82.6135 112.01 83.0168 112.01C83.2662 112.01 83.5008 111.97 83.7208 111.889C83.9408 111.808 84.1792 111.68 84.4358 111.504L85.0848 112.384C84.4322 112.912 83.6953 113.176 82.8738 113.176C81.9572 113.176 81.2533 112.901 80.7618 112.351C80.2705 111.801 80.0248 111.057 80.0248 110.118C80.0248 109.524 80.1275 108.992 80.3328 108.523C80.5455 108.046 80.8498 107.672 81.2458 107.401C81.6492 107.13 82.1258 106.994 82.6758 106.994C83.5045 106.994 84.1498 107.254 84.6118 107.775C85.0738 108.296 85.3048 109.022 85.3048 109.953ZM83.7538 109.513C83.7538 108.545 83.4055 108.061 82.7088 108.061C82.3862 108.061 82.1332 108.182 81.9498 108.424C81.7738 108.659 81.6675 109.044 81.6308 109.579H83.7538V109.513ZM89.4494 107.005C89.6255 107.005 89.8198 107.034 90.0324 107.093L89.7684 108.6C89.5631 108.549 89.3908 108.523 89.2514 108.523C88.9069 108.523 88.6391 108.644 88.4484 108.886C88.2579 109.128 88.1074 109.495 87.9974 109.986V113H86.4354V107.17H87.7884L87.9314 108.303C88.0708 107.892 88.2724 107.573 88.5364 107.346C88.8078 107.119 89.1121 107.005 89.4494 107.005ZM94.0635 106.994C94.5768 106.994 94.9765 107.152 95.2626 107.467C95.5486 107.775 95.6915 108.204 95.6915 108.754V113H94.1295V109.018C94.1295 108.703 94.0745 108.483 93.9645 108.358C93.8618 108.226 93.7042 108.16 93.4915 108.16C93.2715 108.16 93.0698 108.23 92.8865 108.369C92.7105 108.501 92.5382 108.703 92.3695 108.974V113H90.8075V107.17H92.1605L92.2815 107.907C92.5235 107.606 92.7875 107.379 93.0735 107.225C93.3668 107.071 93.6968 106.994 94.0635 106.994ZM103.481 106.994C103.943 106.994 104.313 107.152 104.592 107.467C104.878 107.782 105.021 108.211 105.021 108.754V113H103.459V109.018C103.459 108.446 103.268 108.16 102.887 108.16C102.681 108.16 102.502 108.226 102.348 108.358C102.194 108.49 102.036 108.695 101.875 108.974V113H100.313V109.018C100.313 108.446 100.122 108.16 99.7406 108.16C99.5353 108.16 99.3556 108.23 99.2016 108.369C99.0476 108.501 98.8936 108.703 98.7396 108.974V113H97.1776V107.17H98.5306L98.6516 107.896C98.8717 107.603 99.1173 107.379 99.3886 107.225C99.6674 107.071 99.9864 106.994 100.346 106.994C100.676 106.994 100.962 107.078 101.204 107.247C101.446 107.408 101.622 107.639 101.732 107.94C101.974 107.625 102.234 107.39 102.513 107.236C102.799 107.075 103.121 106.994 103.481 106.994ZM111.43 109.953C111.43 110.026 111.419 110.228 111.397 110.558H107.756C107.807 111.086 107.95 111.46 108.185 111.68C108.42 111.9 108.739 112.01 109.142 112.01C109.391 112.01 109.626 111.97 109.846 111.889C110.066 111.808 110.304 111.68 110.561 111.504L111.21 112.384C110.557 112.912 109.82 113.176 108.999 113.176C108.082 113.176 107.378 112.901 106.887 112.351C106.396 111.801 106.15 111.057 106.15 110.118C106.15 109.524 106.253 108.992 106.458 108.523C106.671 108.046 106.975 107.672 107.371 107.401C107.774 107.13 108.251 106.994 108.801 106.994C109.63 106.994 110.275 107.254 110.737 107.775C111.199 108.296 111.43 109.022 111.43 109.953ZM109.879 109.513C109.879 108.545 109.531 108.061 108.834 108.061C108.511 108.061 108.258 108.182 108.075 108.424C107.899 108.659 107.793 109.044 107.756 109.579H109.879V109.513ZM115.817 106.994C116.33 106.994 116.73 107.152 117.016 107.467C117.302 107.775 117.445 108.204 117.445 108.754V113H115.883V109.018C115.883 108.703 115.828 108.483 115.718 108.358C115.615 108.226 115.457 108.16 115.245 108.16C115.025 108.16 114.823 108.23 114.64 108.369C114.464 108.501 114.291 108.703 114.123 108.974V113H112.561V107.17H113.914L114.035 107.907C114.277 107.606 114.541 107.379 114.827 107.225C115.12 107.071 115.45 106.994 115.817 106.994ZM122.418 112.725C122.205 112.872 121.963 112.982 121.692 113.055C121.428 113.136 121.164 113.176 120.9 113.176C120.298 113.169 119.844 112.996 119.536 112.659C119.228 112.322 119.074 111.827 119.074 111.174V108.27H118.205V107.17H119.074V105.894L120.636 105.707V107.17H121.978L121.824 108.27H120.636V111.141C120.636 111.42 120.683 111.621 120.779 111.746C120.874 111.871 121.021 111.933 121.219 111.933C121.417 111.933 121.637 111.867 121.879 111.735L122.418 112.725ZM128.248 106.994C129.121 106.994 129.803 107.269 130.294 107.819C130.785 108.362 131.031 109.117 131.031 110.085C131.031 110.701 130.917 111.244 130.69 111.713C130.47 112.175 130.147 112.534 129.722 112.791C129.304 113.048 128.809 113.176 128.237 113.176C127.364 113.176 126.679 112.905 126.18 112.362C125.689 111.812 125.443 111.053 125.443 110.085C125.443 109.469 125.553 108.93 125.773 108.468C126 107.999 126.323 107.636 126.741 107.379C127.166 107.122 127.669 106.994 128.248 106.994ZM128.248 108.16C127.852 108.16 127.555 108.318 127.357 108.633C127.166 108.941 127.071 109.425 127.071 110.085C127.071 110.745 127.166 111.233 127.357 111.548C127.555 111.856 127.848 112.01 128.237 112.01C128.626 112.01 128.915 111.856 129.106 111.548C129.304 111.233 129.403 110.745 129.403 110.085C129.403 109.425 129.308 108.941 129.117 108.633C128.926 108.318 128.637 108.16 128.248 108.16ZM134.716 105.839C134.452 105.839 134.261 105.901 134.144 106.026C134.034 106.151 133.979 106.352 133.979 106.631V107.17H135.365L135.189 108.27H133.979V113H132.417V108.27H131.493V107.17H132.417V106.587C132.417 106.022 132.6 105.564 132.967 105.212C133.341 104.853 133.869 104.673 134.551 104.673C135.093 104.673 135.607 104.79 136.091 105.025L135.662 106.059C135.346 105.912 135.031 105.839 134.716 105.839ZM140.411 105.388V113H138.794V105.388H140.411ZM145.25 106.994C145.763 106.994 146.163 107.152 146.449 107.467C146.735 107.775 146.878 108.204 146.878 108.754V113H145.316V109.018C145.316 108.703 145.261 108.483 145.151 108.358C145.048 108.226 144.891 108.16 144.678 108.16C144.458 108.16 144.256 108.23 144.073 108.369C143.897 108.501 143.725 108.703 143.556 108.974V113H141.994V107.17H143.347L143.468 107.907C143.71 107.606 143.974 107.379 144.26 107.225C144.553 107.071 144.883 106.994 145.25 106.994ZM153.413 104.849V113H152.038L151.95 112.285C151.54 112.879 150.982 113.176 150.278 113.176C149.56 113.176 149.01 112.901 148.628 112.351C148.254 111.794 148.067 111.038 148.067 110.085C148.067 109.484 148.163 108.952 148.353 108.49C148.551 108.021 148.83 107.654 149.189 107.39C149.549 107.126 149.963 106.994 150.432 106.994C150.975 106.994 151.448 107.188 151.851 107.577V104.673L153.413 104.849ZM150.74 112.01C150.968 112.01 151.169 111.955 151.345 111.845C151.521 111.728 151.69 111.548 151.851 111.306V108.699C151.697 108.516 151.54 108.38 151.378 108.292C151.224 108.197 151.045 108.149 150.839 108.149C150.48 108.149 150.198 108.307 149.992 108.622C149.794 108.937 149.695 109.425 149.695 110.085C149.695 110.782 149.783 111.277 149.959 111.57C150.143 111.863 150.403 112.01 150.74 112.01ZM156.511 107.17V113H154.949V107.17H156.511ZM155.719 104.167C155.998 104.167 156.225 104.255 156.401 104.431C156.585 104.6 156.676 104.816 156.676 105.08C156.676 105.344 156.585 105.564 156.401 105.74C156.225 105.909 155.998 105.993 155.719 105.993C155.441 105.993 155.213 105.909 155.037 105.74C154.861 105.564 154.773 105.344 154.773 105.08C154.773 104.816 154.861 104.6 155.037 104.431C155.213 104.255 155.441 104.167 155.719 104.167ZM162.509 111.383C162.509 111.61 162.542 111.779 162.608 111.889C162.674 111.992 162.784 112.069 162.938 112.12L162.608 113.154C162.263 113.125 161.981 113.044 161.761 112.912C161.548 112.78 161.383 112.575 161.266 112.296C160.884 112.883 160.301 113.176 159.517 113.176C158.937 113.176 158.475 113.011 158.131 112.681C157.793 112.344 157.625 111.907 157.625 111.372C157.625 110.734 157.856 110.246 158.318 109.909C158.78 109.572 159.443 109.403 160.309 109.403H160.98V109.117C160.98 108.758 160.899 108.508 160.738 108.369C160.576 108.23 160.309 108.16 159.935 108.16C159.524 108.16 159.011 108.263 158.395 108.468L158.043 107.423C158.769 107.137 159.487 106.994 160.199 106.994C160.991 106.994 161.574 107.166 161.948 107.511C162.322 107.848 162.509 108.354 162.509 109.029V111.383ZM159.946 112.054C160.386 112.054 160.73 111.838 160.98 111.405V110.294H160.463C159.619 110.294 159.198 110.609 159.198 111.24C159.198 111.497 159.26 111.698 159.385 111.845C159.517 111.984 159.704 112.054 159.946 112.054Z" fill="black"/>
</svg>
