<svg width="51" height="75" viewBox="0 0 51 75" fill="none" xmlns="http://www.w3.org/2000/svg">
<rect width="51" height="75" rx="25.5" fill="#F14A75"/>
<path d="M20.084 19.3626H29.8352V31.9338C30.2347 32.0255 32.6549 32.5073 34.8871 30.9474C36.8373 29.5939 37.3072 27.6211 37.4247 27.1623C37.4247 24.1342 37.4247 21.129 37.4247 18.1009C36.5788 13.9947 33.0543 11.0125 29.1303 10.8748C24.5484 10.7372 20.3425 14.4305 20.084 19.3626Z" stroke="white" stroke-miterlimit="10"/>
<path d="M21.1641 19.3613V32.0701H26.5684V30.1431C25.9339 30.0514 25.0411 29.822 24.0777 29.2944C22.5739 28.4685 21.7515 27.3445 21.352 26.748" stroke="white" stroke-miterlimit="10"/>
<path d="M26.5696 32.072C25.8646 32.6455 24.7838 33.4943 23.374 34.4348C19.7319 36.8894 18.2046 37.1417 17.3588 38.6328C16.7713 39.711 16.4424 41.5233 18.0167 44.7808C17.7347 44.9643 17.3588 45.2854 17.0063 45.7672C16.6303 46.2719 16.4189 46.7536 16.3249 47.0977C16.0429 47.0748 15.6435 47.0518 15.1735 47.0289C14.4216 47.0289 14.0222 47.0289 13.6932 47.1665C13.0588 47.4418 12.5889 48.1071 12.4714 48.7953C12.3304 49.7358 12.8708 50.7222 13.8342 51.2269C12.9178 51.7545 12.4009 52.6721 12.4949 53.5439C12.6594 54.7597 14.0457 55.792 15.667 55.5167C16.1134 56.4343 17.0768 58.1319 19.0505 59.4165C21.4002 60.9535 23.7969 60.9994 25.0423 60.9994C26.1936 60.9994 28.1674 60.9764 30.3056 59.8524C31.081 59.4395 34.3705 57.5584 35.1224 53.6815C35.5924 51.181 34.77 49.1623 34.3705 48.3365C34.3705 46.1572 34.3705 43.9779 34.3705 41.7986H35.2164V35.1689C35.0989 34.7789 34.864 34.2283 34.3705 33.6548C33.5247 32.6684 32.4438 32.3473 32.0208 32.2326C31.2924 32.2326 30.5405 32.2326 29.8121 32.2326L29.7886 30.1221H26.5696V32.072Z" stroke="white" stroke-miterlimit="10"/>
<path d="M27.7695 38.0361V41.7524H35.2651" stroke="white" stroke-miterlimit="10"/>
<path d="M28.8481 41.752V45.8353C28.8246 45.95 28.7541 46.317 28.4251 46.6382C28.0962 46.9593 27.7202 47.0052 27.6028 47.0282C23.8432 47.0511 20.0837 47.074 16.3242 47.097" stroke="white" stroke-miterlimit="10"/>
<path d="M34.4192 48.3125C34.2547 48.7254 33.8318 49.5742 32.9154 50.2853C32.1635 50.8588 31.3881 51.0882 30.9652 51.18C25.2554 51.2029 19.5456 51.2029 13.8594 51.2259" stroke="white" stroke-miterlimit="10"/>
<path d="M22.9746 22.2988C24.0085 23.377 25.0423 23.377 26.0527 22.2988" stroke="white" stroke-miterlimit="10"/>
<path d="M24.5265 26.1084C24.55 26.1772 24.7145 26.9801 24.127 27.5995C23.4926 28.2648 22.5997 28.1042 22.5527 28.0812" stroke="white" stroke-miterlimit="10"/>
<path d="M15.1484 51.228C16.5583 51.0903 17.8271 52.0538 17.8976 53.2238C17.9681 54.3019 17.0282 55.3342 15.7359 55.4719" stroke="white" stroke-miterlimit="10"/>
</svg>
