<svg width="121" height="42" viewBox="0 0 121 42" fill="none" xmlns="http://www.w3.org/2000/svg">
<path d="M8.21875 0.325494C9.90047 0.325494 11.3562 0.605781 12.5858 1.16636C13.8335 1.72693 14.7919 2.52259 15.461 3.55332C16.1301 4.58405 16.4646 5.80466 16.4646 7.21514C16.4646 8.60753 16.1301 9.82814 15.461 10.877C14.7919 11.9077 13.8335 12.7033 12.5858 13.2639C11.3562 13.8064 9.90047 14.0777 8.21875 14.0777H4.39418V19.3127H0V0.325494H8.21875ZM7.97463 10.4972C9.29469 10.4972 10.2983 10.2169 10.9855 9.65635C11.6726 9.07769 12.0162 8.26396 12.0162 7.21514C12.0162 6.14824 11.6726 5.3345 10.9855 4.77393C10.2983 4.19527 9.29469 3.90594 7.97463 3.90594H4.39418V10.4972H7.97463Z" fill="#F58634"/>
<path d="M29.0619 19.6382C27.0908 19.6382 25.3096 19.2132 23.7183 18.3633C22.1451 17.5134 20.9064 16.3471 20.0023 14.8643C19.1162 13.3634 18.6732 11.6817 18.6732 9.8191C18.6732 7.95654 19.1162 6.28386 20.0023 4.80105C20.9064 3.30016 22.1451 2.12476 23.7183 1.27486C25.3096 0.424952 27.0908 0 29.0619 0C31.0329 0 32.8051 0.424952 34.3783 1.27486C35.9515 2.12476 37.1902 3.30016 38.0944 4.80105C38.9985 6.28386 39.4506 7.95654 39.4506 9.8191C39.4506 11.6817 38.9985 13.3634 38.0944 14.8643C37.1902 16.3471 35.9515 17.5134 34.3783 18.3633C32.8051 19.2132 31.0329 19.6382 29.0619 19.6382ZM29.0619 15.895C30.183 15.895 31.1957 15.6418 32.0998 15.1355C33.004 14.6111 33.7092 13.8878 34.2155 12.9655C34.7399 12.0433 35.0022 10.9945 35.0022 9.8191C35.0022 8.6437 34.7399 7.59488 34.2155 6.67265C33.7092 5.75041 33.004 5.03613 32.0998 4.5298C31.1957 4.0054 30.183 3.74319 29.0619 3.74319C27.9407 3.74319 26.9281 4.0054 26.0239 4.5298C25.1198 5.03613 24.4055 5.75041 23.8811 6.67265C23.3747 7.59488 23.1216 8.6437 23.1216 9.8191C23.1216 10.9945 23.3747 12.0433 23.8811 12.9655C24.4055 13.8878 25.1198 14.6111 26.0239 15.1355C26.9281 15.6418 27.9407 15.895 29.0619 15.895Z" fill="#F58634"/>
<path d="M48.9917 19.6382C47.4908 19.6382 46.0351 19.4393 44.6246 19.0415C43.2322 18.6255 42.111 18.0921 41.2611 17.4411L42.753 14.1319C43.5667 14.7286 44.5342 15.2078 45.6553 15.5695C46.7765 15.9312 47.8976 16.112 49.0188 16.112C50.2665 16.112 51.1887 15.9312 51.7855 15.5695C52.3822 15.1898 52.6806 14.6925 52.6806 14.0777C52.6806 13.6256 52.4998 13.2549 52.1381 12.9655C51.7945 12.6581 51.3424 12.414 50.7819 12.2332C50.2394 12.0524 49.498 11.8534 48.5577 11.6364C47.111 11.2929 45.9266 10.9493 45.0043 10.6057C44.0821 10.2621 43.2864 9.7106 42.6174 8.95111C41.9664 8.19162 41.6409 7.17897 41.6409 5.91316C41.6409 4.81009 41.9393 3.81552 42.536 2.92945C43.1327 2.0253 44.0279 1.31102 45.2213 0.786612C46.4329 0.262204 47.9067 0 49.6426 0C50.8542 0 52.0386 0.144664 53.196 0.433992C54.3533 0.723322 55.3659 1.13923 56.2339 1.68172L54.8777 5.01805C53.1236 4.02348 51.3696 3.5262 49.6155 3.5262C48.3859 3.5262 47.4727 3.72511 46.8759 4.12294C46.2973 4.52076 46.0079 5.04517 46.0079 5.69616C46.0079 6.34715 46.3425 6.83539 47.0116 7.16089C47.6987 7.4683 48.7385 7.77571 50.1309 8.08312C51.5775 8.4267 52.762 8.77028 53.6842 9.11386C54.6064 9.45744 55.3931 9.99993 56.044 10.7413C56.7131 11.4827 57.0477 12.4863 57.0477 13.7522C57.0477 14.8371 56.7402 15.8317 56.1254 16.7359C55.5287 17.6219 54.6245 18.3272 53.413 18.8516C52.2014 19.376 50.7276 19.6382 48.9917 19.6382Z" fill="#F58634"/>
<path d="M77.4642 0.325494V19.3127H73.07V11.5279H64.4444V19.3127H60.0502V0.325494H64.4444V7.81188H73.07V0.325494H77.4642Z" fill="#F58634"/>
<path d="M94.4609 15.244H85.6454L83.9637 19.3127H79.461L87.9239 0.325494H92.2638L100.754 19.3127H96.1426L94.4609 15.244ZM93.0776 11.9077L90.0667 4.6383L87.0559 11.9077H93.0776Z" fill="#F58634"/>
<path d="M120.138 0.325494V19.3127H116.53L107.064 7.78475V19.3127H102.724V0.325494H106.358L115.798 11.8534V0.325494H120.138Z" fill="#F58634"/>
<path d="M6.18668 25.7697H0V24.1517H14.2344V25.7697H8.04772V41.8483H6.18668V25.7697Z" fill="#001A53"/>
<path d="M29.2288 41.8483L25.2049 36.1601C24.7522 36.2107 24.2828 36.236 23.7966 36.236H19.0685V41.8483H17.2075V24.1517H23.7966C26.0432 24.1517 27.8037 24.691 29.0779 25.7697C30.3521 26.8483 30.9892 28.3315 30.9892 30.2191C30.9892 31.6011 30.6371 32.7725 29.933 33.7331C29.2455 34.677 28.2563 35.3596 26.9654 35.7809L31.2659 41.8483H29.2288ZM23.7463 34.6433C25.4899 34.6433 26.8228 34.2556 27.745 33.4803C28.6671 32.7051 29.1282 31.618 29.1282 30.2191C29.1282 28.7865 28.6671 27.691 27.745 26.9326C26.8228 26.1573 25.4899 25.7697 23.7463 25.7697H19.0685V34.6433H23.7463Z" fill="#001A53"/>
<path d="M46.4221 37.1208H36.614L34.5014 41.8483H32.565L40.6127 24.1517H42.4486L50.4963 41.8483H48.5347L46.4221 37.1208ZM45.7431 35.6039L41.518 26.0983L37.293 35.6039H45.7431Z" fill="#001A53"/>
<path d="M60.8082 42C59.0645 42 57.4885 41.6124 56.0802 40.8371C54.6886 40.0618 53.5904 38.9916 52.7856 37.6264C51.9976 36.2444 51.6036 34.7022 51.6036 33C51.6036 31.2978 51.9976 29.764 52.7856 28.3989C53.5904 27.0169 54.697 25.9382 56.1053 25.1629C57.5137 24.3876 59.0897 24 60.8334 24C62.1411 24 63.3483 24.2191 64.4548 24.6573C65.5614 25.0955 66.5003 25.736 67.2715 26.5787L66.0895 27.7669C64.7147 26.368 62.9794 25.6685 60.8837 25.6685C59.4921 25.6685 58.2262 25.9888 57.0861 26.6292C55.946 27.2697 55.0491 28.1461 54.3952 29.2584C53.7581 30.3708 53.4395 31.618 53.4395 33C53.4395 34.382 53.7581 35.6292 54.3952 36.7416C55.0491 37.8539 55.946 38.7303 57.0861 39.3708C58.2262 40.0112 59.4921 40.3315 60.8837 40.3315C62.9962 40.3315 64.7315 39.6236 66.0895 38.2079L67.2715 39.3961C66.5003 40.2388 65.553 40.8876 64.4297 41.3427C63.3231 41.7809 62.116 42 60.8082 42Z" fill="#001A53"/>
<path d="M76.6962 33.5309L73.0998 37.1966V41.8483H71.2388V24.1517H73.0998V34.8455L83.4361 24.1517H85.5738L77.9536 32.1657L86.1019 41.8483H83.8888L76.6962 33.5309Z" fill="#001A53"/>
<path d="M101.567 40.2303V41.8483H89.1183V24.1517H101.19V25.7697H90.9793V32.0646H100.083V33.6573H90.9793V40.2303H101.567Z" fill="#001A53"/>
<path d="M117.963 41.8483L113.939 36.1601C113.486 36.2107 113.017 36.236 112.531 36.236H107.803V41.8483H105.942V24.1517H112.531C114.777 24.1517 116.538 24.691 117.812 25.7697C119.086 26.8483 119.723 28.3315 119.723 30.2191C119.723 31.6011 119.371 32.7725 118.667 33.7331C117.98 34.677 116.99 35.3596 115.7 35.7809L120 41.8483H117.963ZM112.48 34.6433C114.224 34.6433 115.557 34.2556 116.479 33.4803C117.401 32.7051 117.862 31.618 117.862 30.2191C117.862 28.7865 117.401 27.691 116.479 26.9326C115.557 26.1573 114.224 25.7697 112.48 25.7697H107.803V34.6433H112.48Z" fill="#001A53"/>
</svg>
