<svg width="224" height="18" viewBox="0 0 224 18" fill="none" xmlns="http://www.w3.org/2000/svg">
<path d="M7.10892 0.957322C8.56356 0.957322 9.82267 1.19976 10.8863 1.68464C11.9655 2.16952 12.7945 2.85773 13.3732 3.74928C13.952 4.64082 14.2413 5.69661 14.2413 6.91662C14.2413 8.12099 13.952 9.17677 13.3732 10.084C12.7945 10.9755 11.9655 11.6637 10.8863 12.1486C9.82267 12.6178 8.56356 12.8525 7.10892 12.8525H3.80081V17.3806H0V0.957322H7.10892ZM6.89777 9.7555C8.03958 9.7555 8.90766 9.51306 9.50203 9.02818C10.0964 8.52766 10.3936 7.82381 10.3936 6.91662C10.3936 5.99379 10.0964 5.28993 9.50203 4.80506C8.90766 4.30454 8.03958 4.05428 6.89777 4.05428H3.80081V9.7555H6.89777Z" fill="#F58634"/>
<path d="M25.1375 17.6621C23.4326 17.6621 21.8919 17.2946 20.5155 16.5594C19.1547 15.8243 18.0833 14.8154 17.3012 13.5328C16.5348 12.2346 16.1516 10.78 16.1516 9.16895C16.1516 7.55791 16.5348 6.1111 17.3012 4.82852C18.0833 3.5303 19.1547 2.51362 20.5155 1.77849C21.8919 1.04335 23.4326 0.675781 25.1375 0.675781C26.8424 0.675781 28.3752 1.04335 29.736 1.77849C31.0968 2.51362 32.1682 3.5303 32.9503 4.82852C33.7323 6.1111 34.1234 7.55791 34.1234 9.16895C34.1234 10.78 33.7323 12.2346 32.9503 13.5328C32.1682 14.8154 31.0968 15.8243 29.736 16.5594C28.3752 17.2946 26.8424 17.6621 25.1375 17.6621ZM25.1375 14.4244C26.1072 14.4244 26.9831 14.2054 27.7652 13.7675C28.5473 13.3139 29.1573 12.6882 29.5952 11.8905C30.0488 11.0928 30.2756 10.1856 30.2756 9.16895C30.2756 8.15227 30.0488 7.24508 29.5952 6.44738C29.1573 5.64968 28.5473 5.03186 27.7652 4.5939C26.9831 4.14031 26.1072 3.91351 25.1375 3.91351C24.1677 3.91351 23.2918 4.14031 22.5098 4.5939C21.7277 5.03186 21.1099 5.64968 20.6563 6.44738C20.2183 7.24508 19.9994 8.15227 19.9994 9.16895C19.9994 10.1856 20.2183 11.0928 20.6563 11.8905C21.1099 12.6882 21.7277 13.3139 22.5098 13.7675C23.2918 14.2054 24.1677 14.4244 25.1375 14.4244Z" fill="#F58634"/>
<path d="M42.376 17.6621C41.0778 17.6621 39.8187 17.4901 38.5987 17.146C37.3943 16.7862 36.4246 16.3248 35.6894 15.7617L36.9798 12.8994C37.6837 13.4155 38.5205 13.83 39.4902 14.1429C40.46 14.4557 41.4297 14.6121 42.3995 14.6121C43.4787 14.6121 44.2764 14.4557 44.7926 14.1429C45.3088 13.8144 45.5668 13.3843 45.5668 12.8525C45.5668 12.4614 45.4104 12.1408 45.0976 11.8905C44.8004 11.6246 44.4094 11.4135 43.9245 11.2571C43.4553 11.1006 42.814 10.9286 42.0007 10.7409C40.7494 10.4437 39.7249 10.1465 38.9272 9.84934C38.1295 9.55216 37.4412 9.0751 36.8625 8.41817C36.2994 7.76124 36.0179 6.88534 36.0179 5.79045C36.0179 4.83634 36.276 3.97607 36.7921 3.20966C37.3083 2.4276 38.0825 1.80977 39.1148 1.35617C40.1628 0.902579 41.4376 0.675781 42.9391 0.675781C43.9871 0.675781 45.0116 0.80091 46.0126 1.05117C47.0137 1.30143 47.8896 1.66118 48.6403 2.13041L47.4673 5.01621C45.9501 4.15595 44.4329 3.72582 42.9157 3.72582C41.8521 3.72582 41.0622 3.89787 40.546 4.24198C40.0455 4.58608 39.7952 5.03967 39.7952 5.60276C39.7952 6.16584 40.0846 6.58815 40.6633 6.8697C41.2577 7.1356 42.1571 7.4015 43.3614 7.6674C44.6127 7.96458 45.6372 8.26176 46.4349 8.55895C47.2326 8.85613 47.913 9.32536 48.4761 9.96665C49.0548 10.6079 49.3442 11.476 49.3442 12.5709C49.3442 13.5094 49.0783 14.3697 48.5465 15.1517C48.0303 15.9181 47.2483 16.5281 46.2003 16.9817C45.1524 17.4353 43.8776 17.6621 42.376 17.6621Z" fill="#F58634"/>
<path d="M67.0038 0.957322V17.3806H63.203V10.647H55.7421V17.3806H51.9413V0.957322H55.7421V7.43278H63.203V0.957322H67.0038Z" fill="#F58634"/>
<path d="M81.7053 13.8613H74.0803L72.6256 17.3806H68.731L76.051 0.957322H79.8049L87.1485 17.3806H83.16L81.7053 13.8613ZM80.5088 10.9755L77.9045 4.68775L75.3003 10.9755H80.5088Z" fill="#F58634"/>
<path d="M103.915 0.957322V17.3806H100.794L92.6063 7.40932V17.3806H88.8524V0.957322H91.9963L100.161 10.9286V0.957322H103.915Z" fill="#F58634"/>
<path d="M115.181 2.36132H109.266V0.820255H122.875V2.36132H116.96V17.6756H115.181V2.36132Z" fill="#181818"/>
<path d="M137.212 17.6756L133.365 12.2578C132.932 12.306 132.483 12.3301 132.018 12.3301H127.498V17.6756H125.718V0.820255H132.018C134.166 0.820255 135.849 1.33394 137.068 2.36132C138.286 3.38869 138.895 4.80133 138.895 6.59923C138.895 7.91556 138.559 9.03122 137.885 9.94622C137.228 10.8452 136.282 11.4953 135.048 11.8966L139.16 17.6756H137.212ZM131.97 10.8131C133.637 10.8131 134.912 10.4439 135.793 9.70543C136.675 8.96701 137.116 7.93161 137.116 6.59923C137.116 5.23475 136.675 4.19133 135.793 3.46895C134.912 2.73053 133.637 2.36132 131.97 2.36132H127.498V10.8131H131.97Z" fill="#181818"/>
<path d="M153.651 13.1728H144.273L142.253 17.6756H140.402L148.096 0.820255H149.852L157.546 17.6756H155.671L153.651 13.1728ZM153.002 11.7281L148.962 2.67434L144.922 11.7281H153.002Z" fill="#181818"/>
<path d="M167.406 17.8201C165.739 17.8201 164.232 17.4509 162.885 16.7124C161.555 15.974 160.505 14.9547 159.735 13.6544C158.982 12.3381 158.605 10.8693 158.605 9.24793C158.605 7.62661 158.982 6.16581 159.735 4.86554C160.505 3.54922 161.563 2.52184 162.909 1.78342C164.256 1.04499 165.763 0.675781 167.43 0.675781C168.68 0.675781 169.834 0.884467 170.892 1.30184C171.95 1.71921 172.848 2.32921 173.586 3.13185L172.455 4.26356C171.141 2.93119 169.482 2.265 167.478 2.265C166.147 2.265 164.937 2.57 163.847 3.18C162.757 3.79001 161.899 4.62475 161.274 5.68423C160.665 6.74371 160.36 7.93161 160.36 9.24793C160.36 10.5643 160.665 11.7522 161.274 12.8116C161.899 13.8711 162.757 14.7059 163.847 15.3159C164.937 15.9259 166.147 16.2309 167.478 16.2309C169.498 16.2309 171.157 15.5566 172.455 14.2082L173.586 15.3399C172.848 16.1426 171.942 16.7606 170.868 17.194C169.81 17.6114 168.656 17.8201 167.406 17.8201Z" fill="#181818"/>
<path d="M182.597 9.75359L179.158 13.2451V17.6756H177.379V0.820255H179.158V11.0057L189.041 0.820255H191.085L183.799 8.45332L191.59 17.6756H189.474L182.597 9.75359Z" fill="#181818"/>
<path d="M206.376 16.1345V17.6756H194.474V0.820255H206.016V2.36132H196.253V8.35701H204.958V9.87399H196.253V16.1345H206.376Z" fill="#181818"/>
<path d="M222.053 17.6756L218.206 12.2578C217.773 12.306 217.324 12.3301 216.859 12.3301H212.338V17.6756H210.559V0.820255H216.859C219.007 0.820255 220.69 1.33394 221.909 2.36132C223.127 3.38869 223.736 4.80133 223.736 6.59923C223.736 7.91556 223.399 9.03122 222.726 9.94622C222.069 10.8452 221.123 11.4953 219.889 11.8966L224.001 17.6756H222.053ZM216.811 10.8131C218.478 10.8131 219.752 10.4439 220.634 9.70543C221.516 8.96701 221.957 7.93161 221.957 6.59923C221.957 5.23475 221.516 4.19133 220.634 3.46895C219.752 2.73053 218.478 2.36132 216.811 2.36132H212.338V10.8131H216.811Z" fill="#181818"/>
</svg>
