<svg width="51" height="75" viewBox="0 0 51 75" fill="none" xmlns="http://www.w3.org/2000/svg">
<rect width="51" height="75" rx="25.5" fill="#BFC640"/>
<path d="M12.6536 28.5248C12.4941 27.4466 11.9623 23.0264 14.7805 18.8218C15.0463 18.3905 18.8216 13 25.5213 13C30.6259 13 35.2519 16.1265 37.2725 20.4929C38.9208 23.9967 38.4423 27.3927 38.2296 28.6865" stroke="white" stroke-miterlimit="10"/>
<path d="M14.1444 26.3148C15.8459 26.5843 19.249 26.8538 23.1306 25.3984C25.7892 24.3742 27.7034 22.9187 28.8732 21.8945C29.4581 22.8109 30.4684 24.1047 32.0636 25.2906C33.9246 26.6921 35.7856 27.2851 36.9023 27.5546C37.0086 28.2554 37.6467 33.053 34.1905 37.0959C33.7651 37.6349 30.5216 41.2466 25.3106 41.1927C21.2164 41.1388 17.3879 38.8747 15.3674 35.317C13.0278 31.2741 13.9317 27.1773 14.1444 26.3148Z" stroke="white" stroke-miterlimit="10"/>
<path d="M13.772 27.9316C13.6124 27.9855 12.3895 28.4707 12.0173 29.7105C11.7514 30.7347 12.0173 31.9745 12.9744 32.5675C13.5061 32.8909 14.091 32.8909 14.41 32.8909" stroke="white" stroke-miterlimit="10"/>
<path d="M37.0081 28.1475C37.1144 28.1475 38.4437 28.4709 38.9754 29.7107C39.2945 30.5193 39.2413 31.7052 38.4437 32.406C37.7525 32.9989 36.9017 32.8911 36.7422 32.8372" stroke="white" stroke-miterlimit="10"/>
<path d="M19.8319 31.4359C20.7423 31.4359 21.4803 30.6877 21.4803 29.7648C21.4803 28.8419 20.7423 28.0938 19.8319 28.0938C18.9216 28.0938 18.1836 28.8419 18.1836 29.7648C18.1836 30.6877 18.9216 31.4359 19.8319 31.4359Z" fill="white"/>
<path d="M30.9999 31.4359C31.9103 31.4359 32.6483 30.6877 32.6483 29.7648C32.6483 28.8419 31.9103 28.0938 30.9999 28.0938C30.0896 28.0938 29.3516 28.8419 29.3516 29.7648C29.3516 30.6877 30.0896 31.4359 30.9999 31.4359Z" fill="white"/>
<path d="M23.1309 35.6943C23.3435 36.6107 23.9816 37.3115 24.8324 37.4732C25.8958 37.6888 27.0656 36.9342 27.3847 35.6943C25.949 35.6943 24.5133 35.6943 23.1309 35.6943Z" fill="white"/>
<path d="M19.1438 39.3057V49.1704H16.9106C16.9106 53.375 16.8574 57.5257 16.8574 61.7303C19.6224 61.7303 22.3874 61.7842 25.2055 61.8381C28.3427 61.892 31.4267 61.9459 34.5107 61.9998C34.4575 57.7952 34.4044 53.5906 34.3512 49.386H32.1711V40.0064C32.0648 39.8986 31.9584 39.8447 31.7989 39.7369C31.5862 39.6291 31.3735 39.5213 31.214 39.4674C30.6291 39.7908 29.991 40.0603 29.4061 40.3838V49.2782H21.6429V40.6533L19.1438 39.3057Z" stroke="white" stroke-miterlimit="10" stroke-linecap="round" stroke-linejoin="round"/>
<path d="M19.1436 39.8447C18.1865 40.0603 16.2723 40.6533 14.4644 42.3244C12.4439 44.1572 11.6995 46.3134 11.4336 47.2298C11.9653 47.2837 12.7097 47.3915 13.4541 47.7149C13.9859 47.9305 14.4113 48.1462 14.7835 48.3618C15.3152 47.661 15.7937 46.9602 16.3255 46.2595L16.9104 46.6907C16.9104 47.5532 16.9104 48.4157 16.9104 49.2782" stroke="white" stroke-miterlimit="10" stroke-linecap="round" stroke-linejoin="round"/>
<path d="M32.2227 39.8994C33.1798 40.1689 34.9345 40.7619 36.5828 42.3252C38.5502 44.1579 39.3478 46.2603 39.6136 47.2305C39.0819 47.2845 38.3375 47.3923 37.5931 47.7157C37.0614 47.9313 36.636 48.1469 36.2638 48.3626C35.732 47.6618 35.2535 46.961 34.7218 46.2603L34.1369 46.6915C34.1369 47.554 34.1369 48.4165 34.1369 49.279" stroke="white" stroke-miterlimit="10" stroke-linecap="round" stroke-linejoin="round"/>
<path d="M11.5915 47.2305C11.3257 48.039 11.0598 49.1172 10.9535 50.3031C10.794 52.1359 10.9535 53.6991 11.1662 54.7772C11.3257 54.5616 11.8042 53.9686 12.7082 53.753C13.2931 53.5913 13.7716 53.6991 14.0375 53.753C13.9311 53.1062 13.8248 52.082 13.9311 50.9499C14.0375 49.8179 14.3033 48.9015 14.5692 48.2008C14.197 47.9851 13.6653 47.7156 13.0272 47.5539C12.4955 47.3922 12.0169 47.2844 11.5915 47.2305Z" stroke="white" stroke-miterlimit="10" stroke-linecap="round" stroke-linejoin="round"/>
<path d="M13.2918 58.2273C14.5252 58.2273 15.5251 57.2136 15.5251 55.9632C15.5251 54.7129 14.5252 53.6992 13.2918 53.6992C12.0585 53.6992 11.0586 54.7129 11.0586 55.9632C11.0586 57.2136 12.0585 58.2273 13.2918 58.2273Z" stroke="white" stroke-miterlimit="10" stroke-linecap="round" stroke-linejoin="round"/>
<path d="M39.3488 47.2305C39.6146 48.039 39.8805 49.1172 39.9868 50.3031C40.1463 52.1359 39.9868 53.6991 39.7741 54.7772C39.6146 54.5616 39.1361 53.9686 38.2321 53.753C37.6472 53.5913 37.1687 53.6991 36.9028 53.753C37.0092 53.0523 37.1155 52.0281 37.0092 50.896C36.9028 49.764 36.637 48.8476 36.3711 48.1469C36.7433 47.9312 37.275 47.6617 37.9131 47.5C38.498 47.3922 38.9765 47.2844 39.3488 47.2305Z" stroke="white" stroke-miterlimit="10" stroke-linecap="round" stroke-linejoin="round"/>
<path d="M37.7 58.2273C38.9334 58.2273 39.9333 57.2136 39.9333 55.9632C39.9333 54.7129 38.9334 53.6992 37.7 53.6992C36.4667 53.6992 35.4668 54.7129 35.4668 55.9632C35.4668 57.2136 36.4667 58.2273 37.7 58.2273Z" stroke="white" stroke-miterlimit="10" stroke-linecap="round" stroke-linejoin="round"/>
</svg>
